<mxfile host="app.diagrams.net" modified="2024-07-23T09:49:03.784Z" agent="Mozilla/5.0 (Windows NT 10.0; Win64; x64) AppleWebKit/537.36 (KHTML, like Gecko) Chrome/123.0.0.0 Safari/537.36 OPR/109.0.0.0" etag="HpxqJDRVxZ18PhPQoe9m" version="24.7.3" type="device">
  <diagram name="Seite-1" id="i3f0pkjjdX822sAOpVpW">
    <mxGraphModel dx="1393" dy="758" grid="1" gridSize="10" guides="1" tooltips="1" connect="1" arrows="1" fold="1" page="1" pageScale="1" pageWidth="827" pageHeight="1169" math="0" shadow="0">
      <root>
        <mxCell id="0" />
        <mxCell id="1" parent="0" />
        <mxCell id="BMemmID9J18MKPpSDB7M-4" value="Sends user commands /&lt;div&gt;sends new data to save&lt;/div&gt;" style="edgeStyle=orthogonalEdgeStyle;rounded=0;orthogonalLoop=1;jettySize=auto;html=1;exitX=0;exitY=0;exitDx=0;exitDy=0;entryX=0;entryY=1;entryDx=0;entryDy=0;" edge="1" parent="1" source="BMemmID9J18MKPpSDB7M-1" target="BMemmID9J18MKPpSDB7M-3">
          <mxGeometry relative="1" as="geometry" />
        </mxCell>
        <mxCell id="BMemmID9J18MKPpSDB7M-1" value="UI / Website" style="rounded=0;whiteSpace=wrap;html=1;" vertex="1" parent="1">
          <mxGeometry x="80" y="440" width="160" height="80" as="geometry" />
        </mxCell>
        <mxCell id="BMemmID9J18MKPpSDB7M-7" value="Sends data for processing /&lt;div&gt;sends bool data was saved&lt;/div&gt;" style="edgeStyle=orthogonalEdgeStyle;rounded=0;orthogonalLoop=1;jettySize=auto;html=1;exitX=1;exitY=1;exitDx=0;exitDy=0;entryX=1;entryY=0;entryDx=0;entryDy=0;" edge="1" parent="1" source="BMemmID9J18MKPpSDB7M-2" target="BMemmID9J18MKPpSDB7M-3">
          <mxGeometry relative="1" as="geometry" />
        </mxCell>
        <mxCell id="BMemmID9J18MKPpSDB7M-2" value="Database" style="rounded=0;whiteSpace=wrap;html=1;" vertex="1" parent="1">
          <mxGeometry x="80" y="40" width="160" height="80" as="geometry" />
        </mxCell>
        <mxCell id="BMemmID9J18MKPpSDB7M-5" value="Sends data to display /&lt;div&gt;bool data was saved to display&lt;/div&gt;" style="edgeStyle=orthogonalEdgeStyle;rounded=0;orthogonalLoop=1;jettySize=auto;html=1;exitX=1;exitY=1;exitDx=0;exitDy=0;entryX=1;entryY=0;entryDx=0;entryDy=0;" edge="1" parent="1" source="BMemmID9J18MKPpSDB7M-3" target="BMemmID9J18MKPpSDB7M-1">
          <mxGeometry relative="1" as="geometry" />
        </mxCell>
        <mxCell id="BMemmID9J18MKPpSDB7M-6" value="Send load data request /&lt;div&gt;sends new data to save&lt;/div&gt;" style="edgeStyle=orthogonalEdgeStyle;rounded=0;orthogonalLoop=1;jettySize=auto;html=1;exitX=0;exitY=0;exitDx=0;exitDy=0;entryX=0;entryY=1;entryDx=0;entryDy=0;" edge="1" parent="1" source="BMemmID9J18MKPpSDB7M-3" target="BMemmID9J18MKPpSDB7M-2">
          <mxGeometry relative="1" as="geometry" />
        </mxCell>
        <mxCell id="BMemmID9J18MKPpSDB7M-3" value="Backend" style="rounded=0;whiteSpace=wrap;html=1;" vertex="1" parent="1">
          <mxGeometry x="80" y="240" width="160" height="80" as="geometry" />
        </mxCell>
      </root>
    </mxGraphModel>
  </diagram>
</mxfile>
